<?xml version="1.0" encoding="UTF-8" standalone="no"?>
<svg width="240" height="60" viewBox="0 0 240 60" xmlns="http://www.w3.org/2000/svg">
  <!-- Spring Boot Icon (Leaf) -->
  <g transform="translate(10, 30)">
    <path d="M20,0 C20,0 20,20 0,20 C0,20 20,20 20,40 C20,40 20,20 40,20 C40,20 20,20 20,0" 
          fill="#6db33f" />
    <circle cx="20" cy="20" r="5" fill="#ffffff" />
  </g>
  
  <!-- MyBatis Icon (Database Symbol) -->
  <g transform="translate(45, 15)">
    <rect x="0" y="0" width="25" height="30" rx="3" fill="#34a0d4" />
    <rect x="0" y="0" width="25" height="8" rx="3" fill="#2889b8" />
    <line x1="5" y1="20" x2="20" y2="20" stroke="#ffffff" stroke-width="2" />
    <line x1="5" y1="25" x2="15" y2="25" stroke="#ffffff" stroke-width="2" />
  </g>
  
  <!-- Text: Spring Boot & MyBatis Seed -->
  <text x="85" y="30" font-family="Arial, sans-serif" font-weight="bold" font-size="14" fill="#333333">
    Spring Boot &amp; MyBatis
  </text>
  <text x="85" y="48" font-family="Arial, sans-serif" font-weight="bold" font-size="16" fill="#6db33f">
    Seed Project
  </text>
  
  <!-- Connection Line -->
  <path d="M38,30 L45,30" stroke="#6db33f" stroke-width="2" />
</svg>